<?xml version="1.0" encoding="UTF-8"?>
<svg version="1.1" xmlns="http://www.w3.org/2000/svg" width="675" height="450">
<path d="M0 0 C222.75 0 445.5 0 675 0 C675 148.5 675 297 675 450 C452.25 450 229.5 450 0 450 C0 301.5 0 153 0 0 Z " fill="#2B3990" transform="translate(0,0)"/>
<path d="M0 0 C27.8828125 0 27.8828125 0 34.05859375 4.5 C39.47728905 10.39455806 39.51009242 15.50683497 39.34375 23.25390625 C38.74036452 29.8294367 35.79362477 33.53085377 31.0625 37.875 C25.21623956 41.93158888 19.99374563 42.2751583 13.125 42.125 C10.44375 42.08375 7.7625 42.0425 5 42 C5 51.24 5 60.48 5 70 C3.35 70 1.7 70 0 70 C0 46.9 0 23.8 0 0 Z " fill="#2E3C91" transform="translate(163,190)"/>
<path d="M0 0 C1.65 0 3.3 0 5 0 C10.50442885 10.69230907 15.64971319 21.54839617 20.75 32.4375 C21.07751251 33.13609131 21.40502502 33.83468262 21.74246216 34.55444336 C23.83987808 39.03099317 25.92364803 43.51364169 28 48 C28.44279297 48.94633301 28.88558594 49.89266602 29.34179688 50.86767578 C29.70853516 51.66544434 30.07527344 52.46321289 30.453125 53.28515625 C30.75895508 53.94523682 31.06478516 54.60531738 31.37988281 55.28540039 C32 57 32 57 32 60 C32.66 60 33.32 60 34 60 C34.08636719 59.18015625 34.17273438 58.3603125 34.26171875 57.515625 C35.16893582 53.1955437 36.8611388 49.68634481 38.8125 45.75 C39.6264472 44.07101331 40.43885916 42.39128178 41.25 40.7109375 C41.68957031 39.80311523 42.12914062 38.89529297 42.58203125 37.95996094 C45.2173319 32.45886157 47.76116191 26.91540768 50.3125 21.375 C51.06720581 19.74062988 51.06720581 19.74062988 51.8371582 18.07324219 C54.6051001 12.06918606 57.33659065 6.05118898 60 0 C61.98 0 63.96 0 66 0 C66 23.1 66 46.2 66 70 C64.02 70 62.04 70 60 70 C59.67 52.18 59.34 34.36 59 16 C56.545625 21.383125 54.09125 26.76625 51.5625 32.3125 C45.80566766 44.92203657 40.00501843 57.50622555 34 70 C33.01 70 32.02 70 31 70 C30.70867187 69.34515625 30.41734375 68.6903125 30.1171875 68.015625 C27.83237586 62.92868588 25.47016974 57.9061727 22.9375 52.9375 C20.64167127 48.40470995 18.68807667 43.83611678 16.86328125 39.09765625 C16.00958252 36.87483505 16.00958252 36.87483505 14.5 34.5 C12.61919769 31.36532949 11.37630039 28.10024518 10.0625 24.6953125 C8.77744961 21.43544202 7.38029851 18.22069652 6 15 C5.67 33.15 5.34 51.3 5 70 C3.35 70 1.7 70 0 70 C0 46.9 0 23.8 0 0 Z " fill="#ECEDF5" transform="translate(439,190)"/>
<path d="M0 0 C1.98 0 3.96 0 6 0 C9.85087122 8.96757338 13.3282948 18.04790666 16.71166992 27.19970703 C17.56163493 29.4976612 18.41629388 31.79382987 19.27148438 34.08984375 C22.02878282 41.51530793 24.71523442 48.94430906 27.1315918 56.48974609 C28.29458567 59.85154058 29.73739443 63.04852829 31.265625 66.2578125 C32 68 32 68 32 70 C29.69 70 27.38 70 25 70 C24.20640264 67.6464689 23.41508217 65.29221117 22.625 62.9375 C22.40328125 62.28072266 22.1815625 61.62394531 21.953125 60.94726562 C21.73398438 60.29306641 21.51484375 59.63886719 21.2890625 58.96484375 C21.09006348 58.3730835 20.89106445 57.78132324 20.68603516 57.17163086 C19.72641805 54.13398169 18.87515724 51.06305033 18 48 C8.1 48.33 -1.8 48.66 -12 49 C-13.88955944 54.78705997 -13.88955944 54.78705997 -15.76904297 60.57739258 C-16.00768066 61.30079834 -16.24631836 62.0242041 -16.4921875 62.76953125 C-16.73308105 63.50792236 -16.97397461 64.24631348 -17.22216797 65.00708008 C-18 67 -18 67 -20 70 C-23.125 70.1875 -23.125 70.1875 -26 70 C-24.34392623 64.10337371 -22.43401308 58.42760428 -20.1015625 52.765625 C-18.81597013 49.53796755 -17.65591679 46.27627948 -16.5 43 C-15.11059186 39.07176425 -13.70027829 35.16991222 -12.125 31.3125 C-9.77410273 25.55520057 -7.66853473 19.70816618 -5.54931641 13.86254883 C-3.83874048 9.17124852 -2.01280963 4.57011792 0 0 Z " fill="#EDEEF6" transform="translate(70,190)"/>
<path d="M0 0 C5 0 5 0 7 1.7734375 C7.66 2.63195312 8.32 3.49046875 9 4.375 C9.77988281 5.38304687 10.55976563 6.39109375 11.36328125 7.4296875 C12.24588899 8.61704915 13.12456414 9.80734071 14 11 C14.48001465 11.65387695 14.9600293 12.30775391 15.45458984 12.98144531 C18.16272069 16.68876812 20.84458183 20.41432923 23.515625 24.1484375 C27.1132905 29.17248119 30.76860715 34.15282003 34.4375 39.125 C35.00428467 39.89392578 35.57106934 40.66285156 36.1550293 41.45507812 C39.74694738 46.32137671 43.37067415 51.16089887 47 56 C47.33 37.52 47.66 19.04 48 0 C49.98 0 51.96 0 54 0 C54 23.1 54 46.2 54 70 C48.22624927 68.84524985 47.86806451 68.17373176 44.5625 63.625 C44.14129883 63.05410645 43.72009766 62.48321289 43.28613281 61.89501953 C42.35234013 60.62638876 41.42475483 59.35317256 40.50244141 58.07617188 C38.92675019 55.89877861 37.33108769 53.7372518 35.73046875 51.578125 C33.37254909 48.3948833 31.0225456 45.20606242 28.6796875 42.01171875 C26.17137047 38.59220344 23.65540662 35.1785281 21.1328125 31.76953125 C20.50342773 30.9182666 19.87404297 30.06700195 19.22558594 29.18994141 C18.02407424 27.56520593 16.82165284 25.94114264 15.61816406 24.31787109 C15.0712793 23.57746582 14.52439453 22.83706055 13.9609375 22.07421875 C13.48446777 21.43057373 13.00799805 20.78692871 12.51708984 20.1237793 C10.61440012 17.4601974 8.81573437 14.72360155 7 12 C6.67 31.14 6.34 50.28 6 70 C4.02 70 2.04 70 0 70 C0 46.9 0 23.8 0 0 Z " fill="#E9EBF4" transform="translate(239,190)"/>
<path d="M0 0 C11.22 0 22.44 0 34 0 C34 1.65 34 3.3 34 5 C24.76 5 15.52 5 6 5 C6 13.91 6 22.82 6 32 C14.58 32 23.16 32 32 32 C32 33.65 32 35.3 32 37 C23.42 37 14.84 37 6 37 C6 46.24 6 55.48 6 65 C15.57 65 25.14 65 35 65 C35 66.65 35 68.3 35 70 C23.45 70 11.9 70 0 70 C0 46.9 0 23.8 0 0 Z " fill="#EBEDF5" transform="translate(310,190)"/>
<path d="M0 0 C1.98 0 3.96 0 6 0 C6.38671875 1.18335938 6.7734375 2.36671875 7.171875 3.5859375 C10.7884378 14.5934383 10.7884378 14.5934383 14.94140625 25.40625 C19.57123047 36.75017354 23.47511405 48.27117596 27 60 C27.22139648 59.38592285 27.44279297 58.7718457 27.67089844 58.13916016 C28.6954945 55.30046399 29.72273408 52.46273104 30.75 49.625 C31.09804688 48.65949219 31.44609375 47.69398438 31.8046875 46.69921875 C33.76536767 41.28919385 35.81087611 35.9283921 37.96875 30.59423828 C40.36322637 24.57063366 42.5710254 18.47348692 44.8203125 12.39453125 C45.39265625 10.85732422 45.39265625 10.85732422 45.9765625 9.2890625 C46.31768066 8.36818848 46.65879883 7.44731445 47.01025391 6.49853516 C47.89813567 4.25714839 48.88302678 2.1346738 50 0 C51.98 0 53.96 0 56 0 C48.31869914 23.47064153 48.31869914 23.47064153 43.9921875 32.78515625 C40.70920232 40.11370978 38.08183974 47.73638552 35.4375 55.3125 C33.62486088 60.44639877 31.58540421 65.21221443 29 70 C27.35 70 25.7 70 24 70 C23.67386719 69.01 23.34773437 68.02 23.01171875 67 C20.0205405 57.92014679 20.0205405 57.92014679 16.7421875 48.94140625 C15.821519 46.53313128 14.94195793 44.11112244 14.0625 41.6875 C13.55396484 40.28757812 13.55396484 40.28757812 13.03515625 38.859375 C12.35292667 36.97487668 11.67317852 35.08947791 10.99609375 33.203125 C9.40605865 28.78843932 7.77622259 24.4059193 6 20.0625 C0 5.20535714 0 5.20535714 0 0 Z " fill="#EBECF4" transform="translate(516,190)"/>
<path d="M0 0 C27.8828125 0 27.8828125 0 34.05859375 4.5 C39.47728905 10.39455806 39.51009242 15.50683497 39.34375 23.25390625 C38.74036452 29.8294367 35.79362477 33.53085377 31.0625 37.875 C25.21623956 41.93158888 19.99374563 42.2751583 13.125 42.125 C10.44375 42.08375 7.7625 42.0425 5 42 C5 51.24 5 60.48 5 70 C3.35 70 1.7 70 0 70 C0 46.9 0 23.8 0 0 Z M5 5 C5 15.56 5 26.12 5 37 C19.8182421 38.05045146 19.8182421 38.05045146 28 34 C32.17435407 29.71282555 33.84124624 26.00029743 34.3125 20.0625 C34.19249212 16.07973842 33.21924002 13.36712279 31 10 C27.07205199 6.36664809 24.10032819 4.86453668 18.76953125 4.90234375 C17.68442261 4.90609009 17.68442261 4.90609009 16.57739258 4.90991211 C15.20877075 4.92356812 15.20877075 4.92356812 13.8125 4.9375 C10.904375 4.958125 7.99625 4.97875 5 5 Z " fill="#F4F4F9" transform="translate(163,190)"/>
<path d="M0 0 C1.1456543 -0.00483398 1.1456543 -0.00483398 2.31445312 -0.00976562 C7.20736306 0.03627544 11.29571065 0.76523688 15.9375 2.3125 C15.9375 4.2925 15.9375 6.2725 15.9375 8.3125 C15.13828125 8.08433594 14.3390625 7.85617188 13.515625 7.62109375 C3.48070609 4.99458328 -5.8597684 3.93740103 -15.24609375 9.08203125 C-22.06559574 13.70169389 -25.62266073 18.3850488 -28.0625 26.3125 C-29.42255011 36.10730036 -29.67635092 47.76968339 -24.0625 56.3125 C-23.52238281 56.84746094 -22.98226562 57.38242188 -22.42578125 57.93359375 C-21.0625 59.3125 -21.0625 59.3125 -21.0625 61.3125 C-19.73991528 62.00024405 -18.40263497 62.65961373 -17.0625 63.3125 C-15.51369141 64.08207031 -15.51369141 64.08207031 -13.93359375 64.8671875 C-9.81732072 66.6164562 -6.11173234 66.7325317 -1.6875 66.625 C-0.9437915 66.61662109 -0.20008301 66.60824219 0.56616211 66.59960938 C5.91296776 66.48277761 10.78576518 65.81118649 15.9375 64.3125 C15.9375 65.9625 15.9375 67.6125 15.9375 69.3125 C6.61382956 73.16109124 -5.71588689 74.30425586 -15.5 71.375 C-24.49738368 67.03842318 -30.51937522 59.44222619 -34.0625 50.3125 C-36.79600162 42.11199515 -36.48527135 29.61822759 -33.4375 21.5625 C-32.3203125 19.34375 -32.3203125 19.34375 -31.0625 17.3125 C-30.62679687 16.6009375 -30.19109375 15.889375 -29.7421875 15.15625 C-22.52118672 4.58123247 -12.61842213 -0.2675662 0 0 Z " fill="#EDEEF6" transform="translate(614.0625,188.6875)"/>
<path d="M0 0 C0.70769531 -0.00386719 1.41539062 -0.00773438 2.14453125 -0.01171875 C5.93048044 -0.00466857 9.44539237 0.21592047 13.125 1.125 C13.125 3.105 13.125 5.085 13.125 7.125 C12.05572266 6.9084375 12.05572266 6.9084375 10.96484375 6.6875 C-0.33489424 4.32179786 -0.33489424 4.32179786 -10.875 8.125 C-14.12872024 11.12184759 -14.81217082 12.6302202 -15.375 17.0625 C-15.08750112 21.44891154 -13.89528852 23.82375441 -10.875 27.125 C-7.32258328 29.64985817 -3.60091642 31.86776492 0.125 34.125 C13.72403962 42.92211885 13.72403962 42.92211885 16.125 50.125 C16.83920864 57.02901687 15.31697562 61.56488613 11.125 67.125 C3.63553353 73.23885018 -4.62217212 72.7063295 -13.875 72.125 C-16.84451707 71.40257152 -19.11830711 70.47521693 -21.875 69.125 C-21.875 67.145 -21.875 65.165 -21.875 63.125 C-20.6065625 63.558125 -20.6065625 63.558125 -19.3125 64 C-17.6109375 64.556875 -17.6109375 64.556875 -15.875 65.125 C-14.8025 65.516875 -13.73 65.90875 -12.625 66.3125 C-6.80819231 67.57280833 -1.4343497 67.21408498 4.0625 64.875 C7.88954361 61.62781149 8.99000691 59.18807058 9.625 54.1875 C9.8051466 50.53202523 8.18820162 48.37839793 5.81005859 45.6887207 C1.80565401 41.97266574 -3.14453449 39.45340407 -7.83789062 36.71289062 C-13.94643357 33.02844931 -19.54099563 29.12701312 -21.875 22.125 C-22.70874395 16.0863117 -21.88427027 11.85626044 -18.375 6.8515625 C-13.13476999 0.81983941 -7.54301499 -0.04077305 0 0 Z " fill="#EEEFF6" transform="translate(132.875,188.875)"/>
<path d="M0 0 C15.18 0 30.36 0 46 0 C46 1.65 46 3.3 46 5 C39.4 5 32.8 5 26 5 C26 26.45 26 47.9 26 70 C24.02 70 22.04 70 20 70 C20 48.55 20 27.1 20 5 C13.4 5 6.8 5 0 5 C0 3.35 0 1.7 0 0 Z " fill="#E9EBF4" transform="translate(354,190)"/>
<path d="M0 0 C0.66 0 1.32 0 2 0 C3.70551371 4.37928736 5.40938076 8.75919211 7.109375 13.140625 C8.25546538 16.09267599 9.40984698 19.04103891 10.578125 21.984375 C11.02671875 23.12390625 11.4753125 24.2634375 11.9375 25.4375 C12.53884766 26.95150391 12.53884766 26.95150391 13.15234375 28.49609375 C14 31 14 31 14 34 C5.42 34 -3.16 34 -12 34 C-11.27217353 29.6330412 -10.46942597 26.30147674 -8.8828125 22.265625 C-7.88916784 19.71556348 -6.97749603 17.14178013 -6.0625 14.5625 C-4.2667288 9.59812864 -2.2221761 4.78713469 0 0 Z " fill="#364395" transform="translate(72,200)"/>
<path d="M0 0 C2.5625 0.1875 2.5625 0.1875 4.5625 2.1875 C4.00694444 6.74305556 4.00694444 6.74305556 2.5625 8.1875 C0.125 8.375 0.125 8.375 -2.4375 8.1875 C-3.0975 7.5275 -3.7575 6.8675 -4.4375 6.1875 C-3.71780303 0.28598485 -3.71780303 0.28598485 0 0 Z " fill="#E9EAF4" transform="translate(219.4375,252.8125)"/>
<path d="M0 0 C0.66 0.33 1.32 0.66 2 1 C-0.64 3.64 -3.28 6.28 -6 9 C-6 6 -6 6 -3.5625 3.375 C-2.716875 2.59125 -1.87125 1.8075 -1 1 C-0.67 0.67 -0.34 0.34 0 0 Z " fill="#DEE0EE" transform="translate(120,191)"/>
</svg>
