<?xml version="1.0" encoding="UTF-8"?>
<svg version="1.1" xmlns="http://www.w3.org/2000/svg" width="301" height="167">
<path d="M0 0 C99.33 0 198.66 0 301 0 C301 55.11 301 110.22 301 167 C201.67 167 102.34 167 0 167 C0 111.89 0 56.78 0 0 Z " fill="#68217A" transform="translate(0,0)"/>
<path d="M0 0 C0.79011475 0.00757324 1.58022949 0.01514648 2.39428711 0.02294922 C12.72674073 0.31394442 19.88276672 4.46486719 28.125 10.4375 C27.465 11.7575 26.805 13.0775 26.125 14.4375 C23.63083031 13.24029855 21.30713834 11.9403684 18.9375 10.5 C10.30217088 5.61518459 1.21809237 3.62584437 -8.58203125 6.12890625 C-18.21096593 9.66395293 -25.13928081 15.29062804 -29.875 24.4375 C-34.1410068 34.67591631 -33.81942772 44.12244939 -29.875 54.4375 C-25.53990365 63.04016783 -19.41083263 68.19501928 -10.5625 71.8125 C-0.48406407 75.11645007 8.54221453 73.80345612 18.125 69.4375 C20.43305491 67.91461517 22.15969353 66.40280647 24.125 64.4375 C25.445 65.0975 26.765 65.7575 28.125 66.4375 C26.34620043 71.7738987 20.91726099 73.96501862 16.125 76.4921875 C7.38532356 80.07682042 -4.78531575 80.0520873 -13.5625 76.6875 C-24.34359346 71.47968367 -33.21591343 63.03045159 -37.28173828 51.62524414 C-38.28200785 47.93659573 -38.32166468 44.36439295 -38.25 40.5625 C-38.23839844 39.77093506 -38.22679688 38.97937012 -38.21484375 38.16381836 C-37.89834407 26.82684651 -34.57130636 18.94120229 -26.875 10.4375 C-18.81282026 3.42302032 -10.66977613 -0.14401626 0 0 Z " fill="#F6F3F7" transform="translate(165.875,42.5625)"/>
<path d="M0 0 C3.78565751 1.7576267 5.46853928 3.25595499 7.875 6.625 C9 10 9 10 9 20 C0.42 20 -8.16 20 -17 20 C-14.83384558 28.30926193 -14.83384558 28.30926193 -11.875 31.5625 C-7.26025384 33.86987308 -2.77223958 33.88691394 2.13671875 32.31640625 C3.78988742 31.61557004 5.40083943 30.81659263 7 30 C7 31.65 7 33.3 7 35 C0.93198386 37.69689606 -4.34347513 38.99401126 -11 38 C-15.88478796 35.64806505 -18.36061943 32.69223213 -21 28 C-22.94742566 21.82016923 -23.088324 14.58368985 -20.4375 8.625 C-15.63847079 0.52663822 -9.14672646 -1.47616852 0 0 Z " fill="#F7F4F7" transform="translate(238,64)"/>
<path d="M0 0 C3.70433057 2.11676033 5.37000556 4.13053495 7 8 C7.78168343 13.58345308 7.28213652 18.29560432 4 23 C0.1201152 26.42873541 -2.96388945 27.6628565 -8.0390625 27.390625 C-11.35419553 26.73023993 -13.46989603 25.16866055 -16 23 C-19.096318 18.16931831 -18.74374455 12.51549176 -18 7 C-14.12381559 -0.68032078 -7.76137775 -0.81875806 0 0 Z " fill="#40C9F1" transform="translate(172,69)"/>
<path d="M0 0 C8.25 0 16.5 0 25 0 C25 1.32 25 2.64 25 4 C18.4 4 11.8 4 5 4 C5 10.27 5 16.54 5 23 C10.94 23 16.88 23 23 23 C23 24.32 23 25.64 23 27 C17.06 27 11.12 27 5 27 C5 33.27 5 39.54 5 46 C11.93 46 18.86 46 26 46 C26 47.32 26 48.64 26 50 C17.42 50 8.84 50 0 50 C0 33.5 0 17 0 0 Z " fill="#FAF9FA" transform="translate(37,54)"/>
<path d="M0 0 C8.25 0 16.5 0 25 0 C25 1.32 25 2.64 25 4 C18.4 4 11.8 4 5 4 C5 10.27 5 16.54 5 23 C11.27 23 17.54 23 24 23 C24 24.65 24 26.3 24 28 C17.73 28 11.46 28 5 28 C5 35.26 5 42.52 5 50 C3.35 50 1.7 50 0 50 C0 33.5 0 17 0 0 Z " fill="#F4F1F5" transform="translate(72,54)"/>
<path d="M0 0 C1.65 0 3.3 0 5 0 C5.33 1.32 5.66 2.64 6 4 C6.680625 3.34 7.36125 2.68 8.0625 2 C11.64457375 -0.43885872 13.75519536 -0.33292585 18 0 C18 1.65 18 3.3 18 5 C16.9275 4.896875 15.855 4.79375 14.75 4.6875 C10.88561439 4.60301466 10.88561439 4.60301466 8.625 7.375 C6.28468207 11.15551358 5.84064462 13.22176635 5.68359375 17.6640625 C5.64169922 18.78554687 5.59980469 19.90703125 5.55664062 21.0625 C5.49766602 22.8259375 5.49766602 22.8259375 5.4375 24.625 C5.39431641 25.80835937 5.35113281 26.99171875 5.30664062 28.2109375 C5.20032574 31.14050328 5.09829358 34.07015588 5 37 C3.35 37 1.7 37 0 37 C0 24.79 0 12.58 0 0 Z " fill="#F8F6F9" transform="translate(194,64)"/>
<path d="M0 0 C2.63566652 1.75711101 3.35103699 3.12761283 5 6 C5 7.98 5 9.96 5 12 C-1.93 12 -8.86 12 -16 12 C-15.11968179 7.59840894 -14.48466599 5.53587084 -12 2 C-7.99335752 -0.67109499 -4.70787738 -0.93992648 0 0 Z " fill="#69217B" transform="translate(237,68)"/>
<path d="M0 0 C1.65 0 3.3 0 5 0 C5.33 1.32 5.66 2.64 6 4 C6.680625 3.34 7.36125 2.68 8.0625 2 C11.64457375 -0.43885872 13.75519536 -0.33292585 18 0 C18 1.65 18 3.3 18 5 C16.9275 4.938125 15.855 4.87625 14.75 4.8125 C10.76979873 5.01151006 9.89497784 5.51859042 7 8 C6.01 8 5.02 8 4 8 C4 5.69 4 3.38 4 1 C2.68 0.67 1.36 0.34 0 0 Z " fill="#ECE7EE" transform="translate(194,64)"/>
<path d="M0 0 C0.33 0.99 0.66 1.98 1 3 C6.94 3 12.88 3 19 3 C19.33 2.34 19.66 1.68 20 1 C20 2.32 20 3.64 20 5 C13.07 5 6.14 5 -1 5 C-0.67 3.35 -0.34 1.7 0 0 Z " fill="#7E428D" transform="translate(222,75)"/>
</svg>
