<?xml version="1.0" encoding="UTF-8"?>
<svg version="1.1" xmlns="http://www.w3.org/2000/svg" width="224" height="224">
<path d="M0 0 C73.92 0 147.84 0 224 0 C224 73.92 224 147.84 224 224 C150.08 224 76.16 224 0 224 C0 150.08 0 76.16 0 0 Z " fill="#FDFDFD" transform="translate(0,0)"/>
<path d="M0 0 C3.86770452 1.58300726 6.26169698 4.05123271 9.1640625 7.01635742 C9.6654071 7.52544144 10.16675171 8.03452545 10.68328857 8.55903625 C11.76795686 9.66131832 12.85039868 10.76579477 13.93084717 11.87221336 C15.64033153 13.62115414 17.35726979 15.36243892 19.07666016 17.10163879 C23.96299468 22.04600059 28.83941934 26.99996692 33.70117188 31.96850586 C36.67774597 35.00938169 39.66627507 38.03805891 42.66278076 41.05928993 C43.80296692 42.21376627 44.93845398 43.37290277 46.06915283 44.53667259 C47.64687292 46.15991127 49.23927031 47.76725294 50.8359375 49.37182617 C51.73876465 50.29178879 52.6415918 51.2117514 53.57177734 52.15959167 C55.75807828 54.17523345 55.75807828 54.17523345 57.9942627 54.10142517 C60.91689402 52.49649929 62.92590535 50.39035478 65.25585938 48.00537109 C65.76695755 47.48667953 66.27805573 46.96798798 66.80464172 46.43357849 C67.91173727 45.30839189 69.01541432 44.1798338 70.11604309 43.04832077 C71.85716561 41.25965556 73.60831185 39.48139746 75.3626709 37.70571899 C80.34793076 32.65622718 85.31461813 27.58864476 90.27392578 22.51367188 C93.30898229 19.40926046 96.35600445 16.31701342 99.41059875 13.2318306 C100.57325411 12.05236342 101.73106911 10.868105 102.88395691 9.67908859 C104.49288899 8.01994524 106.1164493 6.37655257 107.74414062 4.73583984 C108.66473267 3.79509613 109.58532471 2.85435242 110.53381348 1.88510132 C113 0 113 0 115.11077881 0.01055908 C117.27617891 1.14464305 118.74956186 2.36854588 120.48339844 4.09521484 C121.47397247 5.07160416 121.47397247 5.07160416 122.48455811 6.06771851 C123.18574768 6.77498077 123.88693726 7.48224304 124.609375 8.2109375 C125.33618469 8.93487701 126.06299438 9.65881653 126.81182861 10.4046936 C128.34520465 11.93602898 129.87480194 13.47115612 131.40087891 15.00976562 C133.74446951 17.36943157 136.10363833 19.71266287 138.46484375 22.0546875 C139.95148392 23.54330965 141.43719346 25.0328619 142.921875 26.5234375 C143.6311615 27.22665131 144.340448 27.92986511 145.07122803 28.65438843 C146.0428891 29.64023422 146.0428891 29.64023422 147.03417969 30.64599609 C147.60835632 31.22255951 148.18253296 31.79912292 148.77410889 32.39315796 C150 34 150 34 150 37 C148.63891602 38.43873596 148.63891602 38.43873596 146.69140625 40.00219727 C141.12363762 44.67240899 136.05722516 49.81778834 130.9375 54.96484375 C129.8954026 56.00881066 128.85308091 57.05255372 127.81054688 58.09608459 C125.09255554 60.81785922 122.3775831 63.54262523 119.66326904 66.26806641 C116.88282982 69.05881073 114.09948971 71.84665871 111.31640625 74.63476562 C105.87479158 80.08704358 100.43636897 85.54249109 95 91 C96.07455502 94.22366505 96.70306842 94.82638112 99.25 96.875 C101.76740507 98.91342977 104.07441615 101.0616687 106.35717773 103.3581543 C108.37184735 105.37162631 110.40512976 107.36550658 112.43896484 109.35961914 C116.59938659 113.44046156 120.74908653 117.53198197 124.89082909 121.63176823 C127.38934309 124.10405092 129.89239005 126.57138071 132.40576172 129.02856445 C135.31293256 131.8711909 138.19980313 134.73367295 141.0859375 137.59765625 C141.99411224 138.48002457 142.90228699 139.36239288 143.83798218 140.27149963 C144.66279083 141.09593063 145.48759949 141.92036163 146.33740234 142.76977539 C147.07066742 143.49193741 147.8039325 144.21409943 148.55941772 144.95814514 C150 147 150 147 149.8187561 149.15501404 C148.8611595 151.31286334 147.83983463 152.52813229 146 154 C145.34 154 144.68 154 144 154 C143.34 155.32 142.68 156.64 142 158 C141.34 158 140.68 158 140 158 C140 158.66 140 159.32 140 160 C138.56640625 161.41235352 138.56640625 161.41235352 136.5625 163.06640625 C131.79277655 167.12214332 127.40010667 171.4878254 123 175.9375 C121.83791016 177.10635742 121.83791016 177.10635742 120.65234375 178.29882812 C118.76589243 180.1969242 116.88183755 182.09733149 115 184 C108.47121267 178.62806094 102.55420138 172.68214926 96.59765625 166.6953125 C95.50928861 165.60507635 94.42069743 164.51506331 93.33189392 163.42526245 C90.48730465 160.57688206 87.64573319 157.72550996 84.80480957 154.87347412 C81.89710335 151.95548 78.98651176 149.04036696 76.07617188 146.125 C70.38130919 140.41946016 64.68963588 134.71075206 59 129 C55.14691234 130.57523746 52.55256086 133.17747444 49.68066406 136.09228516 C48.90437904 136.8681321 48.90437904 136.8681321 48.1124115 137.65965271 C46.40869711 139.36475671 44.71217022 141.07682768 43.015625 142.7890625 C41.83350593 143.974913 40.65094355 145.16032174 39.46795654 146.3453064 C36.35971272 149.46117638 33.25752263 152.58300634 30.15655518 155.70611572 C26.98951498 158.89363619 23.81678613 162.0754832 20.64453125 165.2578125 C14.42410597 171.49966976 8.21006463 177.74783485 2 184 C-1.04581486 182.63886987 -3.13839026 181.10669904 -5.48339844 178.74365234 C-6.47397247 177.75285172 -6.47397247 177.75285172 -7.48455811 176.74203491 C-8.18574768 176.03052277 -8.88693726 175.31901062 -9.609375 174.5859375 C-10.69958954 173.49147812 -10.69958954 173.49147812 -11.81182861 172.37490845 C-14.12929198 170.0462612 -16.4396995 167.71075174 -18.75 165.375 C-20.32115444 163.79381347 -21.89276371 162.21307875 -23.46484375 160.6328125 C-27.31518653 156.7604331 -31.15976117 152.88239829 -35 149 C-30.12235536 143.0579343 -24.76059378 137.66824849 -19.29101944 132.27698517 C-17.6659242 130.67413905 -16.04501963 129.06716273 -14.42526245 127.45892334 C-9.8248747 122.89194088 -5.22013852 118.3294093 -0.60546875 113.77685547 C2.22832038 110.9806283 5.05481657 108.17720693 7.8767128 105.36898041 C8.95129527 104.30245945 10.02864975 103.23872401 11.10879135 102.17783356 C12.61181541 100.70117412 14.10541463 99.215571 15.59716797 97.72753906 C16.44955048 96.88483459 17.30193298 96.04213013 18.18014526 95.17388916 C20.32095324 93.08912148 20.32095324 93.08912148 20 90 C18.61026702 88.46553524 18.61026702 88.46553524 16.69140625 86.99780273 C11.12363762 82.32759101 6.05722516 77.18221166 0.9375 72.03515625 C-0.1045974 70.99118934 -1.14691909 69.94744628 -2.18945312 68.90391541 C-4.90744446 66.18214078 -7.6224169 63.45737477 -10.33673096 60.73193359 C-13.11717018 57.94118927 -15.90051029 55.15334129 -18.68359375 52.36523438 C-24.12520842 46.91295642 -29.56363103 41.45750891 -35 36 C-30.88670129 31.09526099 -26.61457539 26.4780472 -22.0703125 21.97265625 C-21.43511688 21.33887558 -20.79992126 20.70509491 -20.14547729 20.05210876 C-18.14101284 18.05318594 -16.13307786 16.05779216 -14.125 14.0625 C-12.75497611 12.69749867 -11.38518226 11.3322664 -10.015625 9.96679688 C-6.67973457 6.64185789 -3.34072964 3.32007647 0 0 Z " fill="#020202" transform="translate(54,20)"/>
<path d="M0 0 C2.125 0.375 2.125 0.375 4 1 C4 1.66 4 2.32 4 3 C5.32 3.66 6.64 4.32 8 5 C8 5.66 8 6.32 8 7 C9.32 7.66 10.64 8.32 12 9 C12 9.66 12 10.32 12 11 C13.32 11.66 14.64 12.32 16 13 C16 13.66 16 14.32 16 15 C17.32 15.66 18.64 16.32 20 17 C20 17.66 20 18.32 20 19 C21.32 19.66 22.64 20.32 24 21 C24 21.66 24 22.32 24 23 C24.58436829 23.25905121 25.16873657 23.51810242 25.77081299 23.78500366 C28.16940695 25.09233358 29.74541065 26.50443536 31.66699219 28.43994141 C32.36741638 29.14051666 33.06784058 29.84109192 33.78948975 30.56289673 C34.53442688 31.31815643 35.27936401 32.07341614 36.046875 32.8515625 C36.81807678 33.62559418 37.58927856 34.39962585 38.3838501 35.19711304 C40.84396856 37.66841923 43.29703848 40.14659183 45.75 42.625 C47.41750894 44.30254052 49.08547232 45.97962945 50.75390625 47.65625 C54.8412237 51.76560919 58.92277696 55.88062647 63 60 C67.05602714 58.38376737 69.76955528 55.49847324 72.77832031 52.44873047 C73.34461151 51.88273132 73.91090271 51.31673218 74.49435425 50.73358154 C76.36039238 48.8661528 78.21925096 46.99174538 80.078125 45.1171875 C81.37234554 43.81923589 82.66700905 42.52172584 83.96209717 41.22463989 C87.36625646 37.81285164 90.76436634 34.39509948 94.16125488 30.97607422 C97.62991407 27.4869408 101.10425583 24.00347613 104.578125 20.51953125 C111.39099302 13.68522632 118.1974842 6.84460797 125 0 C128.36748512 1.51947499 129.60840337 2.52100842 131 6 C128.88094537 8.17277714 126.75527122 10.33826908 124.625 12.5 C124.02171875 13.12003906 123.4184375 13.74007812 122.796875 14.37890625 C122.21679688 14.96542969 121.63671875 15.55195312 121.0390625 16.15625 C120.50490723 16.70087891 119.97075195 17.24550781 119.42041016 17.80664062 C118 19 118 19 116 19 C115.34 20.32 114.68 21.64 114 23 C113.34 23 112.68 23 112 23 C111.34 24.32 110.68 25.64 110 27 C109.34 27 108.68 27 108 27 C107.34 28.32 106.68 29.64 106 31 C105.34 31 104.68 31 104 31 C103.34 32.32 102.68 33.64 102 35 C101.34 35 100.68 35 100 35 C99.34 36.32 98.68 37.64 98 39 C97.34 39 96.68 39 96 39 C95.34 40.32 94.68 41.64 94 43 C93.34 43 92.68 43 92 43 C91.34 44.32 90.68 45.64 90 47 C89.34 47 88.68 47 88 47 C87.67 47.99 87.34 48.98 87 50 C85.43359375 51.54296875 85.43359375 51.54296875 83.4375 53.1875 C80.38245582 55.79978415 77.36144089 58.42828817 74.4375 61.1875 C73.75558594 61.82042969 73.07367188 62.45335937 72.37109375 63.10546875 C70.81344155 64.84719836 70.81344155 64.84719836 71.06871033 66.75152588 C72.46642075 70.1261104 74.96361985 72.35468985 77.52954102 74.87011719 C78.10514771 75.44616196 78.68075439 76.02220673 79.27380371 76.6157074 C81.17681292 78.51662777 83.09022515 80.40670358 85.00390625 82.296875 C86.32592432 83.61329748 87.64728128 84.93038417 88.96800232 86.24810791 C92.44502689 89.71368093 95.93096658 93.17015039 99.41882324 96.62481689 C102.97668859 100.15198828 106.5260712 103.68767287 110.07617188 107.22265625 C117.0424934 114.15680811 124.01826039 121.08137469 131 128 C129.48052501 131.36748512 128.47899158 132.60840337 125 134 C124.67 133.01 124.34 132.02 124 131 C121.99983534 129.79117904 121.99983534 129.79117904 120 129 C120 128.34 120 127.68 120 127 C118.02 126.01 118.02 126.01 116 125 C116 124.34 116 123.68 116 123 C114.02 122.01 114.02 122.01 112 121 C112 120.34 112 119.68 112 119 C110.02 118.01 110.02 118.01 108 117 C108 116.34 108 115.68 108 115 C107.42189575 114.74884933 106.8437915 114.49769867 106.24816895 114.23893738 C103.70439735 112.83709713 102.0525205 111.25901236 100.02929688 109.17700195 C99.26170044 108.393116 98.494104 107.60923004 97.70324707 106.80158997 C96.47342102 105.53275215 96.47342102 105.53275215 95.21875 104.23828125 C93.47308536 102.4624687 91.72697821 100.68709105 89.98046875 98.91210938 C87.2298857 96.10558811 84.48336384 93.29538183 81.74462891 90.47729492 C79.10115912 87.76159272 76.44251762 85.06152842 73.78125 82.36328125 C72.96136597 81.51131668 72.14148193 80.65935211 71.29675293 79.78157043 C70.52915649 79.00714096 69.76156006 78.23271149 68.97070312 77.43481445 C68.29881958 76.74579544 67.62693604 76.05677643 66.93469238 75.34687805 C65.13522841 73.83334294 65.13522841 73.83334294 63.11871338 73.93972778 C59.90979782 75.54557218 57.61304984 77.99652773 55.12988281 80.52954102 C54.55383804 81.10514771 53.97779327 81.68075439 53.3842926 82.27380371 C51.48337223 84.17681292 49.59329642 86.09022515 47.703125 88.00390625 C46.38670252 89.32592432 45.06961583 90.64728128 43.75189209 91.96800232 C40.28631907 95.44502689 36.82984961 98.93096658 33.37518311 102.41882324 C29.84801172 105.97668859 26.31232713 109.5260712 22.77734375 113.07617188 C15.84319189 120.0424934 8.91862531 127.01826039 2 134 C0.35 132.68 -1.3 131.36 -3 130 C-1.38376737 125.94397286 1.50152676 123.23044472 4.55126953 120.22167969 C5.11726868 119.65538849 5.68326782 119.08909729 6.26641846 118.50564575 C8.1338472 116.63960762 10.00825462 114.78074904 11.8828125 112.921875 C13.18076411 111.62765446 14.47827416 110.33299095 15.77536011 109.03790283 C19.18714836 105.63374354 22.60490052 102.23563366 26.02392578 98.83874512 C29.5130592 95.37008593 32.99652387 91.89574417 36.48046875 88.421875 C43.31477368 81.60900698 50.15539203 74.8025158 57 68 C55.39004265 63.94378003 52.50111333 61.26739702 49.43286133 58.28515625 C48.86525589 57.72529022 48.29765045 57.16542419 47.71284485 56.58859253 C46.48287368 55.37624635 45.25070974 54.16612169 44.0166111 52.95797729 C42.06605682 51.04684845 40.12312188 49.12828088 38.18229675 47.20727539 C32.66444737 41.74748083 27.13700683 36.29755011 21.5949707 30.86230469 C18.20397222 27.53559538 14.82514873 24.19692922 11.45380211 20.85031128 C10.16535549 19.5761592 8.87224607 18.30670488 7.57450294 17.04202271 C5.76449217 15.27751105 3.97029614 13.49827705 2.17895508 11.71484375 C1.36476105 10.93232742 1.36476105 10.93232742 0.53411865 10.13400269 C-0.93180847 8.65600586 -0.93180847 8.65600586 -3 6 C-2.92880393 2.90302376 -2.20642054 2.20642054 0 0 Z " fill="#F2F2F2" transform="translate(48,45)"/>
</svg>
